<?xml version="1.0" encoding="UTF-8"?> <svg xmlns="http://www.w3.org/2000/svg" width="773" height="140" viewBox="0 0 773 140" fill="none"><g clip-path="url(#clip0_218_4370)"><mask id="mask0_218_4370" style="mask-type:luminance" maskUnits="userSpaceOnUse" x="0" y="0" width="773" height="140"><path d="M772.76 0H0V139.88H772.76V0Z" fill="white"></path></mask><g mask="url(#mask0_218_4370)"><path d="M759.69 60.51V105.43H772.75V54.64C772.75 46.91 771.06 41.38 767.69 38.05C764.31 34.72 759.89 33.06 754.41 33.06C749.91 33.06 745.38 34.21 740.83 36.51C736.28 38.81 731.26 42.21 725.78 46.71L728.86 55.81C732.19 53.17 735.71 50.92 739.43 49.06C743.15 47.2 746.57 46.27 749.71 46.27C751.67 46.27 753.35 46.61 754.77 47.3C756.19 47.99 757.36 49.38 758.29 51.48C759.22 53.59 759.68 56.59 759.68 60.51M717.7 58.9V105.43H730.91V54.79C730.91 46.96 729.27 41.38 725.99 38.06C722.71 34.73 718.38 33.07 713 33.07C708.79 33.07 704.34 34.12 699.64 36.23C694.94 38.34 689.56 41.74 683.49 46.43L687.16 55.82C690.58 52.98 694.21 50.68 698.02 48.92C701.84 47.16 705.26 46.28 708.29 46.28C710.54 46.28 712.33 46.62 713.65 47.31C714.97 48 715.97 49.27 716.66 51.13C717.34 52.99 717.69 55.58 717.69 58.91M675.86 35.13V105.44H688.92V49.22L686.72 34.98C682.61 34.78 678.99 34.83 675.86 35.13ZM554.9 107.49C558.62 107.49 562.48 107.05 566.5 106.17C570.51 105.29 574.57 103.82 578.68 101.77C578.58 100.79 578.44 99.86 578.24 98.98C577.85 95.46 577.41 92.67 576.92 90.61C574.47 91.69 571.24 92.76 567.23 93.84C563.22 94.92 559.79 95.45 556.95 95.45C552.25 95.45 548.17 94.47 544.69 92.51C541.22 90.55 538.52 87.64 536.62 83.78C534.71 79.91 533.76 75.24 533.76 69.76C533.76 64.67 534.69 60.27 536.55 56.55C538.41 52.83 541.08 50 544.55 48.04C548.02 46.08 552.01 45.1 556.51 45.1C558.27 45.1 560.25 45.32 562.45 45.76C564.65 46.2 566.98 46.81 569.42 47.59C570.79 47.88 573.14 48.67 576.47 49.94C577.25 46.22 577.84 42.45 578.23 38.64C574.22 36.68 570.32 35.26 566.56 34.38C562.79 33.5 559.29 33.06 556.07 33.06C548.83 33.06 542.52 34.53 537.14 37.46C531.76 40.4 527.6 44.65 524.66 50.23C521.73 55.81 520.26 62.37 520.26 69.9C520.26 77.43 521.7 84.34 524.59 90.01C527.48 95.69 531.56 100.02 536.85 103C542.13 105.98 548.15 107.48 554.9 107.48M473.16 48.03L493.86 44.8L498.7 35.11C495.47 34.91 491.24 34.82 486 34.82C480.76 34.82 476.48 34.92 473.16 35.11C472.87 39.32 472.87 43.62 473.16 48.03ZM485.64 105.42H498.7V35.11L485.64 37.46V105.42ZM441.31 60.5V105.42H454.37V54.63C454.37 46.9 452.68 41.37 449.31 38.04C445.93 34.71 441.51 33.05 436.03 33.05C431.53 33.05 427 34.2 422.45 36.5C417.9 38.8 412.88 42.2 407.4 46.7L410.48 55.8C413.8 53.16 417.33 50.91 421.05 49.05C424.77 47.19 428.19 46.26 431.33 46.26C433.29 46.26 434.97 46.6 436.39 47.29C437.81 47.98 438.98 49.37 439.91 51.47C440.84 53.58 441.31 56.58 441.31 60.5ZM399.33 58.89V105.42H412.54V54.78C412.54 46.95 410.9 41.37 407.62 38.05C404.34 34.72 400.01 33.06 394.63 33.06C390.42 33.06 385.97 34.11 381.27 36.22C376.57 38.33 371.19 41.73 365.12 46.42L368.79 55.81C372.22 52.97 375.84 50.67 379.65 48.91C383.47 47.15 386.89 46.27 389.93 46.27C392.18 46.27 393.97 46.61 395.29 47.3C396.61 47.99 397.61 49.26 398.3 51.12C398.98 52.98 399.33 55.57 399.33 58.9M357.5 35.12V105.43H370.56V49.21L368.36 34.97C364.25 34.77 360.63 34.82 357.5 35.12ZM322.99 105.43C324.55 105.62 326.32 105.72 328.27 105.72C330.22 105.72 332.14 105.62 334 105.43V2.66998C331.36 2.37998 329.3 2.22998 327.84 2.22998C326.38 2.22998 324.07 2.37998 320.94 2.66998V92.8L322.99 105.42V105.43ZM298.77 107.49C302.39 107.49 306.67 106.58 311.61 104.77C316.55 102.96 320.83 100.54 324.45 97.5L322.39 88.1C322.19 88.2 321.95 88.35 321.66 88.54C318.23 90.4 314.66 91.99 310.94 93.31C307.22 94.63 303.99 95.29 301.25 95.29C295.57 95.29 291.02 93.23 287.6 89.13C284.17 85.02 282.46 79.44 282.46 72.4C282.46 66.24 283.36 61.1 285.18 56.99C286.99 52.88 289.61 49.77 293.03 47.67C296.45 45.57 300.61 44.52 305.51 44.52C308.25 44.52 311.67 45.03 315.79 46.06C319.9 47.09 323.37 48.29 326.21 49.66L326.5 38.51C323.07 37.04 319.14 35.77 314.68 34.69C310.23 33.61 305.99 33.08 301.98 33.08C295.62 33.08 289.92 34.6 284.88 37.63C279.84 40.66 275.93 45.04 273.14 50.77C270.35 56.49 268.96 63.27 268.96 71.1C268.96 78.93 270.21 85.85 272.7 91.28C275.19 96.71 278.69 100.77 283.19 103.46C287.69 106.15 292.88 107.5 298.75 107.5M205.97 84.6C205.97 82.84 206.09 81.2 206.34 79.68C206.58 78.16 207 76.57 207.59 74.91C216.2 74.62 226.92 74.86 239.74 75.64V86.5C235.83 89.44 232.04 91.76 228.36 93.47C224.69 95.18 221.09 96.04 217.57 96.04C213.65 96.04 210.74 95.04 208.84 93.03C206.93 91.02 205.98 88.21 205.98 84.59M240.62 97.21L241.94 105.43C243.8 105.62 245.66 105.72 247.52 105.72C249.38 105.72 251.09 105.62 252.66 105.43V59.05C252.66 52.79 251.66 47.77 249.65 44C247.64 40.24 244.83 37.52 241.21 35.85C237.59 34.19 233.09 33.36 227.71 33.36C223.5 33.36 218.8 33.87 213.62 34.9C208.43 35.93 203 37.47 197.33 39.52C198.31 43.24 199.29 46.96 200.27 50.68C205.55 48.82 210.42 47.4 214.87 46.42C219.32 45.44 223.11 44.95 226.25 44.95C229.67 44.95 232.39 45.66 234.4 47.08C236.41 48.5 237.78 50.46 238.51 52.95C239.24 55.44 239.66 58.41 239.76 61.83V65.21C230.95 64.82 223.37 64.6 217.01 64.55C210.65 64.5 204.44 64.62 198.37 64.92C196.7 68.25 195.46 71.62 194.63 75.05C193.8 78.48 193.38 81.95 193.38 85.47C193.38 92.42 195.31 97.83 199.18 101.69C203.05 105.55 208.36 107.49 215.11 107.49C219.32 107.49 223.67 106.56 228.17 104.7C232.67 102.84 236.83 100.35 240.65 97.21M655.77 50.38C653.08 44.8 649.14 40.52 643.95 37.54C638.76 34.56 632.69 33.06 625.75 33.06C618.81 33.06 612.78 34.55 607.7 37.54C602.61 40.53 598.69 44.81 595.96 50.38C593.22 55.96 591.85 62.56 591.85 70.2C591.85 77.84 593.22 84.59 595.96 90.16C598.7 95.74 602.61 100.02 607.7 103C612.79 105.99 618.8 107.48 625.75 107.48C632.7 107.48 638.76 105.99 643.95 103C649.14 100.02 653.07 95.73 655.77 90.16C658.46 84.58 659.81 77.93 659.81 70.2C659.81 62.47 658.46 55.96 655.77 50.38ZM643.81 84.51C642.24 88.38 639.92 91.26 636.84 93.17C633.76 95.08 630.01 96.03 625.61 96.03C621.21 96.03 617.66 95.08 614.67 93.17C611.68 91.26 609.41 88.38 607.85 84.51C606.28 80.65 605.5 75.87 605.5 70.2C605.5 64.53 606.28 59.78 607.85 55.96C609.41 52.14 611.69 49.28 614.67 47.37C617.65 45.46 621.3 44.51 625.61 44.51C629.92 44.51 633.76 45.47 636.84 47.37C639.92 49.28 642.25 52.14 643.81 55.96C645.37 59.78 646.16 64.53 646.16 70.2C646.16 75.87 645.38 80.65 643.81 84.51Z" fill="#191919"></path><path d="M124.14 25.74C121.52 22.53 118.61 19.55 115.46 16.85C111.84 13.75 107.91 11.01 103.7 8.68C93.6998 3.15 82.1898 0 69.9398 0C58.7098 0 48.0898 2.65 38.6898 7.36C27.2598 13.08 17.6198 21.84 10.8198 32.57C8.80976 35.74 7.04977 39.08 5.56977 42.56C4.12977 45.95 2.94977 49.47 2.04977 53.11C2.02977 53.19 2.00977 53.27 1.98977 53.35C1.12977 56.87 0.539766 60.5 0.239766 64.21C0.199766 64.68 0.169766 65.15 0.139766 65.62C0.0497656 67.05 0.00976562 68.49 0.00976562 69.94C0.00976562 86.72 5.91977 102.12 15.7698 114.17C18.3998 117.38 21.2998 120.36 24.4498 123.06C28.7698 126.77 33.5498 129.95 38.6898 132.52C48.0998 137.23 58.7098 139.88 69.9398 139.88C82.1898 139.88 93.6998 136.73 103.71 131.2C114.52 125.23 123.58 116.48 129.93 105.92C131.85 102.72 133.53 99.35 134.93 95.85C136.13 92.86 137.12 89.76 137.9 86.58C138.01 86.13 138.11 85.68 138.21 85.23C139 81.68 139.52 78.03 139.75 74.3C139.75 74.22 139.76 74.13 139.77 74.05C139.85 72.69 139.89 71.33 139.89 69.95C139.89 53.18 133.99 37.79 124.15 25.74M37.4298 41.93H37.4398L102.45 21.02V32.7L55.5898 47.77L102.45 62.84V74.52L37.4398 53.61H37.4298V41.93ZM102.45 97.96L37.4298 118.87V107.19L84.4198 92.08L37.4298 76.97V65.29L102.45 86.2V86.22L102.39 86.2V86.28L102.45 86.26V97.96ZM103.71 85.89V85.81L103.83 85.85L103.71 85.89Z" fill="#FFB700"></path></g></g><defs><clipPath id="clip0_218_4370"><rect width="772.76" height="139.88" fill="white"></rect></clipPath></defs></svg> 