<?xml version="1.0" encoding="UTF-8"?> <svg xmlns="http://www.w3.org/2000/svg" xmlns:xlink="http://www.w3.org/1999/xlink" version="1.1" id="Laag_1" x="0px" y="0px" viewBox="0 0 300.3 49" style="enable-background:new 0 0 300.3 49;" xml:space="preserve"> <style type="text/css"> .st0{fill:#606060;} .st1{fill:#858685;} .st2{fill:#8AC926;} .st3{fill:#00A6FB;} .st4{fill:#F99F0C;} </style> <g> <g> <g> <g> <g> <path class="st0" d="M68.8,18.3c1.1-1,1.6-2.4,1.6-3.9c0-3.7-3-6.1-7.6-6.1H52.1c-0.4,0-0.8,0.4-0.8,0.8v20.1 c0,0.4,0.4,0.8,0.8,0.8h10.8c2.6,0,4.6-0.6,6.1-1.7c1.5-1.1,2.2-2.9,2.2-4.9C71.3,21.2,70.4,19.5,68.8,18.3z M62.2,13 c1.8,0,2.8,0.6,2.8,1.8c0,1.4-1.3,1.7-2.4,1.7h-5.7V13H62.2z M62.4,25.2h-5.6v-4.3h5.5c1.3,0,3.4,0.3,3.4,2.2 C65.8,24.1,65.4,25.2,62.4,25.2z"></path> </g> <g> <path class="st0" d="M85,7.9c-6.8,0-11.9,4.8-11.9,11.2c0,3.2,1.3,6.1,3.5,8.1c2.2,2,5.2,3,8.4,3c3.2,0,6.2-1.1,8.4-3 c2.3-2,3.5-4.9,3.5-8.1C96.9,12.7,91.8,7.9,85,7.9z M85,12.6c3.7,0,6.4,2.7,6.4,6.4c0,3.7-2.7,6.4-6.4,6.4 c-3.7,0-6.4-2.7-6.4-6.4C78.6,15.3,81.3,12.6,85,12.6z"></path> </g> <g> <path class="st0" d="M121.4,9v10.5c0,6.7-4.1,10.7-11,10.7c-6.9,0-11-4-11-10.7V9c0-0.4,0.4-0.8,0.8-0.8h3.9 c0.4,0,0.8,0.4,0.8,0.8v10.5c0,4,1.9,6,5.5,6c3.7,0,5.5-2,5.5-6V9c0-0.4,0.4-0.8,0.8-0.8h3.9C121,8.2,121.4,8.6,121.4,9z"></path> </g> <g> <path class="st0" d="M159.2,8.8c0,0.2-0.1,0.3-0.2,0.6l-9.3,20.3l-0.1,0.2h-3.4l-0.1-0.2l-4.8-11.4c-0.1-0.2-0.1-0.3-0.2-0.5 c-0.1,0.2-0.1,0.3-0.2,0.5l-4.8,11.4l-0.1,0.2h-3.4l-0.1-0.2l-9.3-20.3C123.1,9.2,123,9,123,8.8c0-0.3,0.2-0.6,0.7-0.6h4.2 c0.6,0,0.8,0.1,1,0.7l4.7,10c0.3,0.6,0.6,1.5,0.8,2.1c0.1-0.5,0.3-1,0.6-1.5l4.6-11l0.1-0.2h2.7l0.1,0.2l4.6,11 c0.2,0.5,0.4,1.1,0.6,1.5c0.2-0.7,0.5-1.5,0.8-2.1l4.7-10c0.3-0.5,0.5-0.7,1-0.7h4.2C159,8.2,159.2,8.5,159.2,8.8z"></path> </g> </g> <g> <g> <path class="st0" d="M166.2,9v20.1c0,0.4-0.4,0.8-0.8,0.8h-3.9c-0.4,0-0.8-0.4-0.8-0.8V9c0-0.4,0.4-0.8,0.8-0.8h3.9 C165.8,8.2,166.2,8.6,166.2,9z"></path> </g> <g> <path class="st0" d="M191.4,9v20.1c0,0.4-0.4,0.8-0.8,0.8h-3.4l-0.1-0.1l-10.7-10.9c-0.7-0.7-1.3-1.4-1.8-2v12.2 c0,0.4-0.4,0.8-0.8,0.8h-3.9c-0.4,0-0.8-0.4-0.8-0.8V9c0-0.4,0.4-0.8,0.8-0.8h3.4l0.1,0.1L184,19.1c0.7,0.7,1.4,1.6,1.9,2.2V9 c0-0.4,0.4-0.8,0.8-0.8h3.9C191,8.2,191.4,8.6,191.4,9z"></path> </g> <g> <path class="st0" d="M211.7,9.1v3c0,0.4-0.4,0.9-0.9,0.9h-11v4.5h9.8c0.4,0,0.9,0.4,0.9,0.9v3c0,0.4-0.4,0.9-0.9,0.9h-9.8v6.9 c0,0.4-0.4,0.8-0.8,0.8h-3.9c-0.4,0-0.8-0.4-0.8-0.8V9c0-0.4,0.4-0.8,0.8-0.8h15.7C211.3,8.2,211.7,8.7,211.7,9.1z"></path> </g> <g> <path class="st0" d="M224.6,7.9c-6.8,0-11.9,4.8-11.9,11.2c0,3.2,1.3,6.1,3.5,8.1c2.2,2,5.2,3,8.4,3c3.2,0,6.2-1.1,8.4-3 c2.3-2,3.5-4.9,3.5-8.1C236.5,12.7,231.4,7.9,224.6,7.9z M224.6,25.5c-3.7,0-6.4-2.7-6.4-6.4c0-3.7,2.7-6.4,6.4-6.4 c3.7,0,6.4,2.7,6.4,6.4C231,22.8,228.3,25.5,224.6,25.5z"></path> </g> </g> <g> <g> <path class="st0" d="M258.6,22.9c0,1.9-0.9,3.7-2.4,5c-1.8,1.5-4.4,2.3-7.6,2.3c-3.1,0-5.7-0.7-7.6-2c-1.8-1.2-2.7-3-2.7-4.8 v-0.3c0-0.6,0.5-1,1-1h3.4c0.6,0,1,0.3,1.1,0.8c0.3,1.7,1.9,2.6,4.8,2.6c2.7,0,4.5-0.9,4.5-2.4c0-1.2-1.3-1.5-2.4-1.6l-5.4-0.5 c-4.4-0.4-6.9-2.4-6.9-5.8c0-2,0.9-3.8,2.5-5.1c1.8-1.4,4.3-2.2,7.2-2.2c7,0,9.5,3.5,9.5,6.7c0,0.6-0.4,1-1,1h-3.4 c-0.6,0-0.9-0.3-1-0.8c-0.2-1.3-1.7-2.1-4.1-2.1c-2.5,0-4.2,0.9-4.2,2.3c0,0.3,0,1.2,2.2,1.4l5.4,0.5 C256,17.2,258.6,19.4,258.6,22.9z"></path> </g> <g> <path class="st0" d="M280.3,8.8c0,0.2-0.1,0.3-0.2,0.6l-8.3,11.8v7.8c0,0.4-0.4,0.8-0.8,0.8h-3.9c-0.4,0-0.8-0.4-0.8-0.8v-7.8 l-8.3-11.9c-0.2-0.3-0.2-0.4-0.2-0.6c0-0.3,0.3-0.6,0.6-0.6h4.4c0.5,0,0.8,0.1,1.1,0.6l3.6,5c0.5,0.7,1.2,1.8,1.5,2.4 c0.3-0.6,0.9-1.6,1.5-2.4l3.6-5c0.3-0.5,0.7-0.6,1.2-0.6h4.4C280.1,8.2,280.3,8.5,280.3,8.8z"></path> </g> <g> <path class="st0" d="M300.3,22.9c0,1.9-0.9,3.7-2.4,5c-1.8,1.5-4.4,2.3-7.6,2.3c-3.1,0-5.7-0.7-7.6-2c-1.8-1.2-2.7-3-2.7-4.8 v-0.3c0-0.6,0.5-1,1-1h3.4c0.6,0,1,0.3,1.1,0.8c0.3,1.7,1.9,2.6,4.8,2.6c2.7,0,4.5-0.9,4.5-2.4c0-1.2-1.3-1.5-2.4-1.6l-5.4-0.5 c-4.4-0.4-6.9-2.4-6.9-5.8c0-2,0.9-3.8,2.5-5.1c1.8-1.4,4.3-2.2,7.2-2.2c7,0,9.5,3.5,9.5,6.7c0,0.6-0.4,1-1,1h-3.4 c-0.6,0-0.9-0.3-1-0.8c-0.2-1.3-1.7-2.1-4.1-2.1c-2.5,0-4.2,0.9-4.2,2.3c0,0.3,0,1.2,2.2,1.4l5.4,0.5 C297.7,17.2,300.3,19.4,300.3,22.9z"></path> </g> </g> </g> <g> <path class="st1" d="M57.8,39.6c-0.5-0.4-1.5-0.9-2.8-0.9c-0.8,0-1.5,0.3-1.5,1c0,0.7,1.1,0.8,2.1,0.8c1.5,0.1,3.7,0.3,3.7,2.5 c0,2-1.6,2.8-3.6,2.8c-2.1,0-3.5-0.8-4.4-1.6l1-1.2c0.7,0.5,1.8,1.4,3.4,1.4c1,0,1.8-0.4,1.8-1.1c0-0.8-0.8-0.9-2-1 c-1.8-0.1-3.8-0.3-3.8-2.3c0-1.9,1.8-2.5,3.3-2.5c1.7,0,3.1,0.6,3.8,1.1L57.8,39.6z"></path> <path class="st1" d="M67.4,37.3c2.5,0,4.6,1.9,4.6,4.2c0,2.4-2,4.3-4.6,4.3s-4.5-1.9-4.5-4.3C62.9,39.2,64.9,37.3,67.4,37.3z M67.4,44.3c1.5,0,2.7-1.3,2.7-2.8c0-1.5-1.2-2.7-2.7-2.7c-1.5,0-2.7,1.2-2.7,2.7C64.7,43.1,65.9,44.3,67.4,44.3z"></path> <path class="st1" d="M76.3,45.6v-8h6.6v1.5H78v1.6h3v1.5h-3v3.4H76.3z"></path> <path class="st1" d="M85.9,37.6h7.6v1.5h-2.9v6.5h-1.8v-6.5h-2.9V37.6z"></path> <path class="st1" d="M98.5,37.6l1.5,5.3h0.1l1.6-5.3h1.3l1.6,5.3h0.1l1.5-5.3h1.8l-2.6,8h-1.7l-1.5-4.8h-0.1l-1.5,4.8h-1.7 l-2.6-8H98.5z"></path> <path class="st1" d="M114.4,37.6h1.5l3.7,8h-1.9l-0.7-1.7h-3.7l-0.7,1.7h-1.9L114.4,37.6z M113.8,42.5h2.5l-1.2-2.8H115 L113.8,42.5z"></path> <path class="st1" d="M123.5,45.6v-8h4.4c1.1,0,1.9,0.3,2.4,0.9c0.4,0.4,0.7,1,0.7,1.7c0,1-0.6,1.8-1.6,2.3l1.9,3.2h-2l-1.6-2.9 h-2.4v2.9H123.5z M125.2,39.1v2.1h2.9c0.6,0,1.1-0.4,1.1-1.1c0-0.3-0.1-0.5-0.3-0.7c-0.3-0.3-0.6-0.3-1-0.3H125.2z"></path> <path class="st1" d="M140.2,42.2h-3v1.9h5.2v1.5h-7v-8h6.7v1.5h-4.9v1.6h3V42.2z"></path> <path class="st1" d="M151.9,45.6v-8h1.8v8H151.9z"></path> <path class="st1" d="M164.3,39.6c-0.5-0.4-1.5-0.9-2.8-0.9c-0.8,0-1.5,0.3-1.5,1c0,0.7,1.1,0.8,2.1,0.8c1.5,0.1,3.7,0.3,3.7,2.5 c0,2-1.6,2.8-3.6,2.8c-2.1,0-3.5-0.8-4.4-1.6l1-1.2c0.7,0.5,1.8,1.4,3.4,1.4c1,0,1.8-0.4,1.8-1.1c0-0.8-0.8-0.9-2-1 c-1.8-0.1-3.8-0.3-3.8-2.3c0-1.9,1.8-2.5,3.3-2.5c1.7,0,3.1,0.6,3.8,1.1L164.3,39.6z"></path> <path class="st1" d="M181.6,39.9c-0.7-0.6-1.8-1-2.6-1c-1.5,0-2.6,1.2-2.6,2.7c0,1.4,0.9,2.7,2.7,2.7c0.7,0,1.5-0.2,2-0.5v-1.4 h-2.4V41h4.1v3.6c-1,0.8-2.5,1.3-3.8,1.3c-2.6,0-4.5-1.9-4.5-4.2c0-2.3,1.9-4.2,4.4-4.2c1.3,0,2.7,0.5,3.8,1.4L181.6,39.9z"></path> <path class="st1" d="M192.3,42.2h-3v1.9h5.2v1.5h-7v-8h6.7v1.5h-4.9v1.6h3V42.2z"></path> <path class="st1" d="M198.7,45.6v-8h4.4c1.1,0,1.9,0.3,2.4,0.9c0.4,0.4,0.7,1,0.7,1.7c0,1-0.6,1.8-1.6,2.3l1.9,3.2h-2l-1.6-2.9 h-2.4v2.9H198.7z M200.5,39.1v2.1h2.9c0.6,0,1.1-0.4,1.1-1.1c0-0.3-0.1-0.5-0.3-0.7c-0.3-0.3-0.6-0.3-1-0.3H200.5z"></path> <path class="st1" d="M215.5,42.2h-3v1.9h5.2v1.5h-7v-8h6.7v1.5h-4.9v1.6h3V42.2z"></path> <path class="st1" d="M226.7,42.2h-3v1.9h5.2v1.5h-7v-8h6.7v1.5h-4.9v1.6h3V42.2z"></path> <path class="st1" d="M233.1,45.6v-8h3.8c1.5,0,2.4,0.4,3.1,1.1c0.7,0.7,1.1,1.7,1.1,2.9c0,1.2-0.4,2.2-1.2,3 c-0.7,0.7-1.6,1.1-3.1,1.1H233.1z M236.8,44.1c0.9,0,1.3-0.2,1.7-0.6c0.5-0.5,0.7-1.1,0.7-1.9c0-0.8-0.2-1.4-0.7-1.9 c-0.4-0.4-0.8-0.6-1.8-0.6h-2v5H236.8z"></path> <path class="st1" d="M251.1,39.6c-0.5-0.4-1.5-0.9-2.8-0.9c-0.8,0-1.5,0.3-1.5,1c0,0.7,1.1,0.8,2.1,0.8c1.5,0.1,3.7,0.3,3.7,2.5 c0,2-1.6,2.8-3.6,2.8c-2.1,0-3.5-0.8-4.4-1.6l1-1.2c0.7,0.5,1.8,1.4,3.4,1.4c1,0,1.8-0.4,1.8-1.1c0-0.8-0.8-0.9-2-1 c-1.8-0.1-3.8-0.3-3.8-2.3c0-1.9,1.8-2.5,3.3-2.5c1.7,0,3.1,0.6,3.8,1.1L251.1,39.6z"></path> <path class="st1" d="M264.7,44.2c-0.9,0.9-2.3,1.6-4.1,1.6c-2.7,0-4.4-1.9-4.4-4.3c0-2.3,1.8-4.2,4.4-4.2c1.5,0,2.9,0.6,3.9,1.4 l-1.1,1.2c-0.7-0.6-1.8-1-2.6-1c-1.6,0-2.7,1.2-2.7,2.7c0,1.5,1.1,2.7,2.7,2.7c1.1,0,2.1-0.6,2.8-1.3L264.7,44.2z"></path> <path class="st1" d="M268.7,45.6v-8h1.8v3h3.8v-3h1.8v8h-1.8V42h-3.8v3.6H268.7z"></path> <path class="st1" d="M283.6,37.6h1.5l3.7,8H287l-0.7-1.7h-3.7l-0.7,1.7h-1.9L283.6,37.6z M283.1,42.5h2.5l-1.2-2.8h-0.1 L283.1,42.5z"></path> <path class="st1" d="M292.7,45.6v-8h4.4c1.1,0,1.9,0.3,2.4,0.9c0.4,0.5,0.7,1,0.7,1.6c0,0.7-0.3,1.3-0.8,1.8 c-0.5,0.5-1.2,0.8-2.3,0.8h-2.7v2.9H292.7z M294.5,39.1v2.1h2.8c0.3,0,0.7,0,0.9-0.3c0.2-0.2,0.3-0.5,0.3-0.7 c0-0.3-0.1-0.5-0.3-0.7c-0.3-0.3-0.6-0.3-0.9-0.3H294.5z"></path> </g> </g> <g> <path class="st2" d="M0,12c0.1-2.1,2.3-3.3,4.1-2.6c0.3,0.1,0.5,0.2,0.8,0.4c0.3,0.2,0.6,0.4,1,0.6c0.7,0.4,1.6,0.7,2.4,1 c6.5,2.4,18.4,2.4,24.9,0c3.6-1.4,3.6-2.7,3.5-3.3c-0.1-0.5-0.7-1.8-3.8-2.9C23,2,12.1,2.9,5.2,7.3C3,8.5,0.9,5.4,3,3.9l0.1,0 C11.3-0.9,25-1,34.4,2.1c3,1.1,6.7,3,6.8,6.5c-0.1,4.5-5.9,6.6-10.5,7.6c-8.2,1.7-19.3,1.6-26.7-2.3L0,12z"></path> <path class="st3" d="M38.3,45.1L38.3,45.1c-2.8,1.6-6.1,2.7-9.6,3.3c0,0,0,0,0,0c-2.5,0.4-5.2,0.6-7.8,0.6 c-4.7,0-9.3-0.7-13.3-1.9C7.2,47.1,7,47,6.7,46.9c-2.7-1-4.8-2.3-6-4l0-0.1c-0.4-0.7-0.6-1.3-0.7-2l0,0l0-0.5v-7.1 c0-0.1,0-0.1,0-0.2c0,0,0,0,0,0c0.1-2.1,2.5-3.4,4.3-2.5c0.1,0.1,0.3,0.1,0.4,0.2c1.5,1.1,3.5,1.9,5.9,2.5c0,0,0,0,0,0 c3.3,0.8,7.3,1.2,11.2,1.1h0c5.2-0.1,10.3-1.1,13.5-2.9c0,0,0,0,0,0c0.4-0.2,0.8-0.5,1.2-0.7c0.4-0.3,0.6-0.6,0.6-0.8c0,0,0,0,0,0 c0,0,0-0.1,0-0.1c0,0,0-0.1,0-0.1V35c-1,0.6-2,1-3.2,1.4c0,0,0,0-0.1,0c-4.4,1.6-10.1,2.2-15.4,1.9c0,0,0,0,0,0 c-4.4-0.2-8.7-1-12-2.2c0,0,0,0,0,0c-0.9-0.3-1.7-0.7-2.5-1.1l0,0v5.5c0,0.1,0.1,0.2,0.2,0.3c0.4,0.5,1,0.9,1.7,1.3c0,0,0,0,0,0 c6.7,3.8,23.2,4,30.2-0.4c0.2-0.1,0.4-0.2,0.5-0.2C38.7,41,40.2,43.7,38.3,45.1z"></path> <path class="st4" d="M4,13.9v5.3c0,0,0,0.1,0,0.1c0,0.1,0.2,0.4,0.7,0.9c6.5,4.8,25.2,4.8,31.8,0c0.1-0.1,0.3-0.2,0.4-0.2 c0.1-0.1,0.2-0.1,0.3-0.1c0,0,0,0,0,0c1.8-0.6,3.9,0.7,4,2.7c0,0,0,0.1,0,0.1v7.6c0,0.1,0,0.1,0,0.2c0,0,0,0,0,0 c0,0.1,0,0.1,0,0.2c0,0.1,0,0.1,0,0.2c0,0,0,0,0,0c-0.1,0.6-0.4,1.1-0.8,1.7l-0.1,0.1c0,0,0,0-0.1,0.1c-0.8,0.9-1.8,1.7-3,2.4 c0,0,0,0,0,0v-9.9c0,0,0-0.1,0-0.1v0c0-0.1,0-0.3,0-0.4C28.5,29.1,7.8,29.6,0.9,22l-0.1-0.1c-0.5-0.8-0.8-1.5-0.8-2.2l0-0.1l0-0.5 v-7.1C0,12.1,0,12,0,12L4,13.9z"></path> </g> </g> </svg> 