<?xml version="1.0" encoding="UTF-8"?> <svg xmlns="http://www.w3.org/2000/svg" width="115.69" height="41.906" viewBox="0 0 115.69 41.906"><g transform="translate(-255.426 -442.768)"><g transform="translate(255.426 442.768)"><path d="M423.256,486.816c-.887-2.027-1.833-3.894-2.52-5.85a3.516,3.516,0,0,0-3.032-2.543c-3.436-.686-6.339-2.337-7.549-5.86a14.141,14.141,0,0,1-.642-4.229c-.085-3.792-.05-7.587-.024-11.381.041-6.011,3.013-9.588,9.047-10.4a24.989,24.989,0,0,1,7.452.175c5.4.925,8.148,4.2,8.3,9.616.119,4.248.087,8.5,0,12.754a8.772,8.772,0,0,1-5.751,8.568c-.415.172-.8.41-1.271.653l2.348,5.882Zm3.835-24.177h.009c0-2.093.05-4.188-.014-6.28-.066-2.155-.987-3.32-3.117-3.663a13.259,13.259,0,0,0-4.118,0,3.505,3.505,0,0,0-3.208,3.838c-.059,4.055-.037,8.111,0,12.167.014,1.553.657,3.073,2.182,3.392a16.837,16.837,0,0,0,5.771.156c1.621-.236,2.491-1.6,2.494-3.328Q427.1,465.78,427.091,462.64Z" transform="translate(-348.448 -444.93)"></path><path d="M502.544,478.079l2.377,5.885-6.352,2.676c-.937-2.173-1.9-4.221-2.7-6.329a2.924,2.924,0,0,0-2.4-1.979c-6.283-1.36-8.666-4.332-8.673-10.688q-.006-5.393,0-10.786c.016-6.047,2.746-9.495,8.746-10.447,4.395-.7,8.816-.72,12.638,2.222a8.114,8.114,0,0,1,3.349,6.385c.128,4.9.142,9.806.012,14.705-.088,3.337-1.9,5.756-4.834,7.336C504.08,477.4,503.416,477.671,502.544,478.079Zm-.026-15.581c0-1.958.045-3.917-.011-5.873-.077-2.717-1.394-4.067-4.114-4.268a15.594,15.594,0,0,0-2.559.013c-2.567.235-3.846,1.461-3.906,4.026-.092,3.978-.109,7.963.006,11.94.085,2.978,1.833,4.225,5.439,4.185,3.374-.038,5.03-1.407,5.132-4.347C502.57,466.285,502.517,464.391,502.518,462.5Z" transform="translate(-393.944 -444.734)"></path><path d="M255.426,478.675V446.837c5.625.2,11.137.187,16.6.681,3.159.286,4.824,2.67,5.025,5.864.341,5.417.16,5.961-2.916,8.746,3.989,3.02,5.243,7.219,3.517,11.986-1.209,3.338-4.077,4.385-7.208,4.51C265.525,478.82,260.59,478.675,255.426,478.675Zm6.948-5.729c.808.065,1.322.143,1.837.141,1.312,0,2.63.031,3.934-.087,2.283-.206,2.964-1.056,2.982-3.493.021-2.844-.6-3.772-2.916-3.976a27.549,27.549,0,0,0-4.717.013,1.636,1.636,0,0,0-1.069,1.168C262.311,468.715,262.374,470.727,262.374,472.946Zm-.006-20.157v2.789c0,5.052.054,5.093,5.1,4.468a2.509,2.509,0,0,0,2.487-2.521c.053-.778.026-1.563.013-2.344a2.133,2.133,0,0,0-2.1-2.365C266.127,452.707,264.37,452.789,262.369,452.789Z" transform="translate(-255.426 -445.225)"></path><path d="M372.063,468.844c-.175,1.988-.315,3.587-.464,5.281-2.283-.189-4.414-.406-6.55-.528-1.164-.066-2.322.072-2.457,1.609-.125,1.422.8,1.89,1.99,2.221a33.638,33.638,0,0,1,5.776,1.875,3.992,3.992,0,0,1,2.007,2.647,20.952,20.952,0,0,1-.267,6.555c-.595,2.7-3.087,3.459-5.475,3.776a24.29,24.29,0,0,1-10.918-1.275c.312-1.612.613-3.167.892-4.61,2.541.238,4.819.486,7.1.653,1.179.086,2.257-.082,2.456-1.61.2-1.495-.619-2.166-1.9-2.521-1.331-.371-2.676-.695-4-1.1-2.878-.879-3.884-2.144-4.034-5.082a21.622,21.622,0,0,1,.041-2.941c.24-2.794,1.474-4.6,4.243-4.864C364.2,468.579,367.951,468.844,372.063,468.844Z" transform="translate(-315.986 -458.458)"></path><path d="M331.9,492.245h-6.489V469.377H331.9Z" transform="translate(-297.693 -458.838)"></path><path d="M325.32,442.785c2,0,3.83-.061,5.651.05a1.513,1.513,0,0,1,1.016,1.062c.1,1.942.048,3.892.048,5.981H325.32Z" transform="translate(-297.636 -442.768)"></path></g></g></svg> 