<?xml version="1.0" encoding="UTF-8"?> <svg xmlns="http://www.w3.org/2000/svg" xmlns:xlink="http://www.w3.org/1999/xlink" width="140.56" height="140.667" viewBox="0 0 140.56 140.667"><defs><clipPath id="a"><rect width="123.577" height="140.667" fill="none"></rect></clipPath></defs><g transform="translate(-1812.286 -5426.704)"><path d="M548.466,714.371a70.334,70.334,0,1,1,70.28-70.333,70.306,70.306,0,0,1-70.28,70.333m0-113.376a43.043,43.043,0,1,0,43.009,43.043,43.027,43.027,0,0,0-43.009-43.043" transform="translate(1334.1 4853)" fill="#fce5b6"></path><g transform="translate(1812.389 5426.704)" clip-path="url(#a)"><path d="M548.522,714.371a70.334,70.334,0,0,1,0-140.667v27.291a43.043,43.043,0,1,0,32.625,71.094l20.672,17.8a70.211,70.211,0,0,1-53.3,24.492" transform="translate(-478.242 -573.704)" fill="#fa0"></path></g></g></svg> 