<?xml version="1.0" encoding="UTF-8"?> <svg xmlns="http://www.w3.org/2000/svg" width="85.333" height="80.436" viewBox="0 0 85.333 80.436"><g transform="translate(-661.557 -214.379)"><path d="M709.96,286.871v7.943l-48.4-8.736V222.993l48.45-8.614c0,2.175.1,4.093-.03,6-.112,1.681.536,2.1,2.147,2.091,10.2-.063,20.4-.032,30.6-.027,3.4,0,4.164.741,4.166,4.149q.009,27.89-.006,55.781c0,3.689-.631,4.31-4.416,4.317-9.713.018-19.426,0-29.139.013C712.3,286.7,711.277,286.8,709.96,286.871Zm34.282-2.676a11.226,11.226,0,0,0,.19-1.382q.016-28.1.042-56.191c0-1.551-.642-1.824-1.99-1.819q-15.192.056-30.385-.014c-1.631-.01-2.331.481-2.108,2.127a4.445,4.445,0,0,1,0,1.246c-.311,2.063.441,2.824,2.611,2.677,2.935-.2,5.894-.05,8.767-.05v6.823a3.451,3.451,0,0,1-.581.137q-4.162.014-8.325.017c-2.647.007-2.794.207-2.066,3.171h11.135c0,1.948-.046,3.607.015,5.263.047,1.281-.514,1.694-1.741,1.667-2.635-.057-5.272.015-7.908-.032-1.22-.021-1.929.195-1.923,1.689.007,1.582.884,1.6,2.018,1.585,3.1-.028,6.206-.01,9.521-.01,0,1.945-.05,3.663.016,5.377.051,1.329-.6,1.641-1.779,1.616-2.566-.054-5.133-.018-7.7-.019-1.043,0-2.056-.179-2.08,1.492-.024,1.741.983,1.653,2.15,1.645,3.1-.021,6.191-.007,9.248-.007v6.964c-3.081,0-5.986,0-8.892,0-2.693,0-2.928.35-1.995,3.305H721.53c0,1.8-.065,3.326.019,4.845.079,1.423-.584,1.79-1.872,1.744-1.94-.07-3.885-.043-5.827-.014-4.347.064-3.694-.7-3.882,3.862-.081,1.953.558,2.454,2.448,2.438,9.85-.084,19.7-.036,29.552-.043C742.713,284.307,743.46,284.236,744.242,284.2Zm-70.157-43.075c1.372,2.9,2.284,5.647,3.848,7.952,2.65,3.9,2.338,7.358-.239,11.126-1.568,2.293-2.574,4.97-3.991,7.791,1.577.107,2.745.1,3.881.284,1.759.29,2.605-.434,3.181-2.082.832-2.383,1.941-4.67,3.137-7.484,1.339,3.208,2.443,5.944,3.639,8.639.25.563.79,1.326,1.281,1.4,1.877.265,3.788.285,6.028.417-.481-1.074-.762-1.764-1.093-2.431-1.787-3.6-3.643-7.174-5.332-10.822a3.52,3.52,0,0,1-.026-2.619c1.754-3.848,3.674-7.62,5.52-11.426a14.944,14.944,0,0,0,.549-1.585c-1.422,0-2.6.093-3.756-.022-1.826-.181-2.744.626-3.354,2.306-.882,2.43-2.007,4.771-3.214,7.582-1.1-2.971-1.966-5.456-2.969-7.884-.244-.589-.927-1.382-1.439-1.406A56.292,56.292,0,0,0,674.085,241.121Z" fill="#fff"></path><path d="M813.752,254H826.68v6.712H813.752Z" transform="translate(-88.803 -23.116)" fill="#fff"></path><path d="M813.585,285.157v-6.832h13.174c0,1.966.064,3.877-.055,5.775a1.573,1.573,0,0,1-1.148,1.01C821.628,285.188,817.7,285.157,813.585,285.157Z" transform="translate(-88.705 -37.311)" fill="#fff"></path><path d="M826.846,309.448H813.728v-6.867c4.068,0,8.121-.024,12.172.047.321.005.884.662.9,1.038C826.9,305.517,826.846,307.374,826.846,309.448Z" transform="translate(-88.789 -51.462)" fill="#fff"></path><path d="M826.672,333.9H813.729v-6.723h12.943Z" transform="translate(-88.789 -65.815)" fill="#fff"></path><path d="M826.684,351.5v6.4h-13.04v-6.4Z" transform="translate(-88.74 -80.006)" fill="#fff"></path></g></svg> 