<?xml version="1.0" encoding="UTF-8"?> <svg xmlns="http://www.w3.org/2000/svg" width="83.279" height="75.58" viewBox="0 0 83.279 75.58"><path d="M83.815,23,76.988,78.4H53.928l-6.8-55.683H75.28l5.564-19.9L84,3.809,78.66,22.957,83.815,23ZM43.869,55.053s.862-7.185-11.1-7.185H13.731c-11.94,0-11.1,7.185-11.1,7.185H43.869ZM2.635,71.219S1.79,78.4,13.731,78.4H32.775c11.957,0,11.1-7.185,11.1-7.185ZM42.08,67.627c1.957,0,3.538-2,3.538-4.489s-1.581-4.492-3.538-4.492H4.259c-1.948,0-3.539,1.99-3.539,4.492s1.591,4.489,3.539,4.489H42.08Z" transform="translate(-0.72 -2.825)" fill="#fff"></path></svg> 