<?xml version="1.0" encoding="UTF-8"?> <svg xmlns="http://www.w3.org/2000/svg" width="72.595" height="64.53" viewBox="0 0 72.595 64.53"><path d="M72,24.443l-2.852-2.852a2.017,2.017,0,0,0-2.852,0l-1.425,1.425-3.642-3.642a8.032,8.032,0,0,0-2.061-7.765l-5.7-5.7a20.167,20.167,0,0,0-28.519,0l11.407,5.7v2.363a8.062,8.062,0,0,0,2.363,5.7l6.193,6.193a8.032,8.032,0,0,0,7.765,2.061l3.642,3.642L54.9,33a2.017,2.017,0,0,0,0,2.852L57.747,38.7a2.017,2.017,0,0,0,2.852,0L72.007,27.294A2.017,2.017,0,0,0,72,24.443ZM35.868,22.527a12.231,12.231,0,0,1-1.241-1.506L2.475,51.039A7.794,7.794,0,1,0,13.49,62.054L43.5,29.907a12.254,12.254,0,0,1-1.442-1.186l-6.193-6.193Z" transform="translate(0)" fill="#fff"></path></svg> 