<?xml version="1.0" encoding="UTF-8"?> <svg xmlns="http://www.w3.org/2000/svg" width="15.25" height="10.558" viewBox="0 0 15.25 10.558"><g transform="translate(-3.375 -7.875)"><path d="M18.5,10.336l-3.944,4.018a.071.071,0,0,0,0,.1l2.76,2.94a.476.476,0,0,1,0,.675.478.478,0,0,1-.675,0l-2.749-2.929a.075.075,0,0,0-.106,0l-.671.682a2.952,2.952,0,0,1-2.1.887A3.011,3.011,0,0,1,8.863,15.8l-.645-.656a.075.075,0,0,0-.106,0L5.362,18.071a.478.478,0,0,1-.675,0,.476.476,0,0,1,0-.675l2.76-2.94a.078.078,0,0,0,0-.1L3.5,10.336a.072.072,0,0,0-.125.051v8.039A1.177,1.177,0,0,0,4.548,19.6h12.9a1.177,1.177,0,0,0,1.173-1.173V10.388A.073.073,0,0,0,18.5,10.336Z" transform="translate(0 -1.167)" fill="#ffaa2a"></path><path d="M11.407,14.587a1.993,1.993,0,0,0,1.433-.6l5.752-5.854a1.152,1.152,0,0,0-.726-.257H4.952a1.145,1.145,0,0,0-.726.257l5.752,5.854A1.993,1.993,0,0,0,11.407,14.587Z" transform="translate(-0.407 0)" fill="#ffaa2a"></path></g></svg> 