<?xml version="1.0" encoding="UTF-8"?> <svg xmlns="http://www.w3.org/2000/svg" width="104.637" height="79.119" viewBox="0 0 104.637 79.119"><path d="M114.142,93.716H91.917V42.806l22.225,25.456Z" transform="translate(-61.824 -42.806)" fill="#fff"></path><path d="M108.022,42.806h22.225V93.717L108.022,68.261Z" transform="translate(-55.704 -42.805)" fill="#fff"></path><path d="M70.111,102.967V92.138h3.316v1.2a4.754,4.754,0,0,1,1.583-1.105,5.11,5.11,0,0,1,2.111-.428,4.506,4.506,0,0,1,2.227.538,3.871,3.871,0,0,1,1.519,1.514,4.508,4.508,0,0,1,.548,2.262v6.853H78.111V96.8a2.532,2.532,0,0,0-.618-1.813,2.231,2.231,0,0,0-1.7-.65,2.573,2.573,0,0,0-1.261.291,2.089,2.089,0,0,0-.817.792,2.225,2.225,0,0,0-.291,1.137v6.409Z" transform="translate(-70.111 -24.186)" fill="#fff"></path><path d="M88.688,103.305a7.278,7.278,0,0,1-3.3-.734,5.872,5.872,0,0,1-2.324-2.031,5.634,5.634,0,0,1,0-5.974,5.872,5.872,0,0,1,2.318-2.03,7.75,7.75,0,0,1,6.591,0,5.879,5.879,0,0,1,2.321,2.03,5.634,5.634,0,0,1,0,5.974,5.882,5.882,0,0,1-2.321,2.031,7.215,7.215,0,0,1-3.284.734m0-2.77a3.107,3.107,0,0,0,1.529-.381A2.837,2.837,0,0,0,91.3,99.1a3.2,3.2,0,0,0,0-3.1,2.834,2.834,0,0,0-1.087-1.052,3.268,3.268,0,0,0-3.062,0A2.872,2.872,0,0,0,86.067,96a3.169,3.169,0,0,0,0,3.1,2.875,2.875,0,0,0,1.087,1.053,3.093,3.093,0,0,0,1.533.381" transform="translate(-65.514 -24.186)" fill="#fff"></path><path d="M99.7,104.328a3.248,3.248,0,0,1-2.56-1.025,4.185,4.185,0,0,1-.908-2.876v-4.8H94.744V93.16h1.488V89.11h3.3v4.05h2.422v2.463H99.527v4.558a1.5,1.5,0,0,0,.247.932.858.858,0,0,0,.72.316,1.691,1.691,0,0,0,.992-.338l.828,2.6a5.359,5.359,0,0,1-1.253.465,5.74,5.74,0,0,1-1.362.17" transform="translate(-60.75 -25.208)" fill="#fff"></path><path d="M105.975,91.472a1.938,1.938,0,0,1-1.695-.962,1.864,1.864,0,0,1-.265-.973,1.776,1.776,0,0,1,.27-.962,2,2,0,0,1,.708-.693,1.982,1.982,0,0,1,1.961,0,2.021,2.021,0,0,1,.711.693,1.775,1.775,0,0,1,.269.962,1.829,1.829,0,0,1-.269.973,2,2,0,0,1-.711.7,1.9,1.9,0,0,1-.98.258m-1.646,2.254h3.307v10.829h-3.307Z" transform="translate(-57.226 -25.774)" fill="#fff"></path><path d="M112.172,104.989V96.623h-1.486V94.159h1.486V91.474a6.663,6.663,0,0,1,.484-2.655,3.674,3.674,0,0,1,3.576-2.338,5.186,5.186,0,0,1,1.55.239,4.145,4.145,0,0,1,1.315.661l-1.144,2.273a2.162,2.162,0,0,0-1.14-.306,1.191,1.191,0,0,0-.85.275,1.429,1.429,0,0,0-.393.773,5.647,5.647,0,0,0-.1,1.141v2.623h2.605v2.463h-2.605v8.366Z" transform="translate(-54.691 -26.207)" fill="#fff"></path><path d="M121.8,91.472a1.943,1.943,0,0,1-1.695-.962,1.864,1.864,0,0,1-.265-.973,1.776,1.776,0,0,1,.27-.962,2.03,2.03,0,0,1,.709-.693,1.98,1.98,0,0,1,1.96,0,2.026,2.026,0,0,1,.712.693,1.787,1.787,0,0,1,.269.962,1.842,1.842,0,0,1-.269.973,2,2,0,0,1-.712.7,1.9,1.9,0,0,1-.98.258m-1.646,2.254h3.307v10.829h-3.307Z" transform="translate(-51.213 -25.774)" fill="#fff"></path><path d="M132.67,103.305a6.35,6.35,0,0,1-4.342-1.677A5.774,5.774,0,0,1,127,99.8a5.217,5.217,0,0,1-.486-2.237,5.367,5.367,0,0,1,.457-2.19,5.843,5.843,0,0,1,1.293-1.844,6.1,6.1,0,0,1,1.954-1.27,6.349,6.349,0,0,1,2.433-.46,7.13,7.13,0,0,1,2.063.3,4.751,4.751,0,0,1,1.588.773l-1.13,2.178a3.338,3.338,0,0,0-2-.581,3.223,3.223,0,0,0-1.737.444,2.871,2.871,0,0,0-1.079,1.152,3.242,3.242,0,0,0-.359,1.49,3.129,3.129,0,0,0,.392,1.561,2.881,2.881,0,0,0,1.119,1.116,3.366,3.366,0,0,0,1.686.411,3.7,3.7,0,0,0,1.115-.163,3.108,3.108,0,0,0,.867-.42l1.13,2.18a5.618,5.618,0,0,1-1.588.76,6.694,6.694,0,0,1-2.04.306" transform="translate(-48.678 -24.186)" fill="#fff"></path><path d="M142.248,103.305a5.276,5.276,0,0,1-2.763-.745,5.418,5.418,0,0,1-1.971-2.052,6.43,6.43,0,0,1-.021-5.9,5.384,5.384,0,0,1,1.939-2.052,5.278,5.278,0,0,1,2.815-.755,5.5,5.5,0,0,1,2.192.437A4.356,4.356,0,0,1,146.1,93.46V92.138h3.307v10.829H146.1v-1.428a5.365,5.365,0,0,1-1.732,1.307,4.939,4.939,0,0,1-2.123.46m.98-2.76a2.96,2.96,0,0,0,1.524-.386A2.8,2.8,0,0,0,145.8,99.1a3.311,3.311,0,0,0,0-3.094,2.8,2.8,0,0,0-1.045-1.063,3.2,3.2,0,0,0-3.043,0,2.834,2.834,0,0,0-1.054,1.063,3.062,3.062,0,0,0-.388,1.544,3.028,3.028,0,0,0,.388,1.533,2.862,2.862,0,0,0,1.054,1.07,2.959,2.959,0,0,0,1.519.391" transform="translate(-44.772 -24.186)" fill="#fff"></path></svg> 