<?xml version="1.0" encoding="UTF-8"?> <svg xmlns="http://www.w3.org/2000/svg" width="72.7" height="95.449" viewBox="0 0 72.7 95.449"><g transform="translate(-705.977 -485.53)"><path d="M782.269,528.7q0,9.328,0,18.655a7.667,7.667,0,0,1-5.452,7.527,8.041,8.041,0,0,1-5.134-.169q-2.449-.825-4.92-1.588a2.155,2.155,0,0,1-1.684-1.5,1.855,1.855,0,0,1,2.356-2.288c1.839.538,3.66,1.142,5.477,1.752a4.015,4.015,0,0,0,4.477-.922,4.227,4.227,0,0,0,1.1-3.152q.006-11.653,0-23.306,0-6.448,0-12.895a7.943,7.943,0,0,0-.123-1.68,3.947,3.947,0,0,0-2.979-3.034q-6.845-2.065-13.687-4.135c-4.646-1.41-9.287-2.836-13.933-4.245q-8.255-2.5-16.515-4.992c-2.929-.888-5.851-1.8-8.779-2.686-.789-.24-1.578-.5-2.385-.659a3.932,3.932,0,0,0-4.508,3.762q0,12.472.009,24.944c0,.335,0,.669-.008,1A1.887,1.887,0,0,1,713.668,521a1.862,1.862,0,0,1-1.872-1.939q-.011-5.681,0-11.362,0-7.346.008-14.691a7.685,7.685,0,0,1,6.4-7.39,9.358,9.358,0,0,1,4.213.415q7.594,2.316,15.192,4.616c3,.912,5.983,1.847,8.98,2.754,4.107,1.243,8.222,2.462,12.329,3.7,2.357.713,4.7,1.46,7.06,2.175,3.516,1.068,7.037,2.117,10.552,3.185a7.631,7.631,0,0,1,5.494,5.539,8.05,8.05,0,0,1,.239,2.09C782.276,516.3,782.269,522.5,782.269,528.7Z" transform="translate(-3.593 0)" fill="#fff"></path><path d="M812.759,579.031q0-10.382,0-20.764a4.678,4.678,0,0,1,4.339-4.493,4.807,4.807,0,0,1,5.077,4.906c-.062,8.911-.026,17.823-.027,26.734q0,6.948,0,13.9a4.688,4.688,0,1,1-9.372.273q-.007-8.876-.011-17.752,0-1.4,0-2.8Z" transform="translate(-65.983 -42.161)" fill="#fff"></path><path d="M786.494,587.457q0,7.637,0,15.275a4.608,4.608,0,0,1-2.062,4.055,4.688,4.688,0,0,1-7.331-3.614c-.089-1.651-.03-3.311-.031-4.967q0-10.358,0-20.717c0-1.832-.015-3.664.008-5.5a4.708,4.708,0,0,1,8.7-2.522,4.8,4.8,0,0,1,.724,2.659q-.009,7.664,0,15.327Z" transform="translate(-43.919 -50.5)" fill="#fff"></path><path d="M741.52,595.872c0-3.365-.012-6.729,0-10.094a4.5,4.5,0,0,1,2.3-4.081,4.668,4.668,0,0,1,7.094,4.036c.02,5.813.011,11.626.005,17.439a27.337,27.337,0,0,1-.082,3.425,4.517,4.517,0,0,1-3.958,4,4.629,4.629,0,0,1-4.916-2.694,4.825,4.825,0,0,1-.416-1.883c-.04-3.381-.019-6.764-.019-10.146Z" transform="translate(-21.961 -59.005)" fill="#fff"></path><path d="M705.99,603.432c0-1.813.044-3.628-.011-5.44a4.692,4.692,0,0,1,9-1.879,4.5,4.5,0,0,1,.36,1.686q.049,5.547.015,11.093a4.683,4.683,0,0,1-9.357.35c-.032-1.936-.007-3.873-.007-5.81Z" transform="translate(0 -66.573)" fill="#fff"></path><path d="M860.032,709.978c2.251.632,3.114,2.745,1.875,4.578a3.5,3.5,0,0,1-2.774,1.516c-1.367.095-2.743.049-4.114.082-.346.008-.445-.1-.444-.456q.021-5.308,0-10.616c0-.334.065-.47.431-.463,1.2.023,2.395-.012,3.591.021a3.878,3.878,0,0,1,2.417.778,2.664,2.664,0,0,1-.676,4.425C860.248,709.885,860.154,709.925,860.032,709.978Zm-3.418,2.775h-.007c0,.458-.024.917.014,1.372.011.132.194.352.3.356a10.216,10.216,0,0,0,1.791-.034,1.686,1.686,0,0,0,1.573-1.685,1.528,1.528,0,0,0-1.464-1.631,16.2,16.2,0,0,0-1.782-.111c-.354-.025-.459.126-.436.466C856.635,711.908,856.614,712.331,856.614,712.754Zm1.064-6.537-.008.055c-.211,0-.423.013-.633,0-.317-.024-.441.1-.435.425.014.773,0,1.548.016,2.321,0,.121.13.339.208.344a3.52,3.52,0,0,0,2.346-.372,1.563,1.563,0,0,0,.591-1.594,1.1,1.1,0,0,0-.9-.984C858.476,706.314,858.074,706.278,857.678,706.216Z" transform="translate(-91.823 -135.381)" fill="#fff"></path><path d="M772.821,719.282c.546-1.936,1.063-3.725,1.546-5.524a.641.641,0,0,1,.756-.568c1.23.028,1.246,0,1.557,1.215.423,1.65.82,3.307,1.246,5.032.443-1.824.873-3.58,1.3-5.338.216-.895.21-.9,1.114-.9h1.024c-.319,1.057-.618,2.028-.9,3-.467,1.585-.934,3.171-1.383,4.761-.1.361-.274.542-.662.494a4.808,4.808,0,0,0-.581-.007c-1,0-.979-.008-1.227-1-.4-1.583-.826-3.157-1.275-4.863-.257.875-.478,1.631-.7,2.388-.3,1.029-.619,2.054-.9,3.088a.448.448,0,0,1-.513.395c-.246-.011-.493-.008-.739-.013-1.022-.021-.8.15-1.086-.815-.679-2.273-1.332-4.554-1.995-6.832-.052-.178-.093-.36-.155-.6.623,0,1.185-.031,1.74.021.143.013.335.267.381.442.442,1.7.857,3.409,1.284,5.115C772.672,718.91,772.729,719.032,772.821,719.282Z" transform="translate(-39.089 -140.677)" fill="#fff"></path><path d="M725.51,712.057c0,1.158,0,2.264,0,3.37,0,.7,0,.7-.679.706-1.363.006-1.361.006-1.361-1.344,0-3.188.008-6.375-.012-9.563,0-.486.131-.641.624-.624,1.091.038,2.19-.054,3.273.043a6.269,6.269,0,0,1,2.266.582,3.34,3.34,0,0,1,1.454,3.984,3.72,3.72,0,0,1-3.474,2.754Zm0-1.693a15.255,15.255,0,0,0,2.187-.189,1.894,1.894,0,0,0,1.369-2.2,1.671,1.671,0,0,0-1.7-1.612,11.325,11.325,0,0,0-1.528-.024c-.114,0-.314.185-.316.287C725.5,707.831,725.513,709.04,725.513,710.365Z" transform="translate(-10.801 -135.369)" fill="#fff"></path><path d="M749.276,721.252a3.792,3.792,0,0,1-3.962-2.743,4.754,4.754,0,0,1,1.36-5.036,4.843,4.843,0,0,1,5.483-.012,3.954,3.954,0,0,1,1.083,1.452,4.958,4.958,0,0,1-.866,5.259A4.286,4.286,0,0,1,749.276,721.252Zm-2.189-4.321c.063.379.1.765.195,1.136a2.265,2.265,0,0,0,2.145,1.64,1.95,1.95,0,0,0,2.015-1.723,7.251,7.251,0,0,0,0-2.035,2.086,2.086,0,0,0-3.162-1.425A2.758,2.758,0,0,0,747.087,716.931Z" transform="translate(-24.182 -140.322)" fill="#fff"></path><path d="M804.626,717.523a2.027,2.027,0,0,0,.946,1.814,2.474,2.474,0,0,0,1.931.334,19.763,19.763,0,0,0,1.986-.621c0,.432.024.868-.015,1.3a.579.579,0,0,1-.312.359,5.59,5.59,0,0,1-4.116.323,3.392,3.392,0,0,1-2.375-3.065,4.642,4.642,0,0,1,1.316-4.4,3.75,3.75,0,0,1,5.232.152,4.6,4.6,0,0,1,.89,3.537c-.008.1-.308.245-.473.248-1.479.022-2.958.017-4.437.02Zm.045-1.455h3.484a1.652,1.652,0,0,0-1.533-1.964A1.964,1.964,0,0,0,804.67,716.068Z" transform="translate(-59.698 -140.3)" fill="#fff"></path><path d="M882.424,716.219h-1.965V704.774h1.965Z" transform="translate(-107.817 -135.477)" fill="#fff"></path><path d="M826.671,712.926H828.6v1.2a10.9,10.9,0,0,1,.907-.993,1.768,1.768,0,0,1,.755-.343c1-.227,1.213-.048,1.212.962q0,.442,0,.887c-.1.015-.158.042-.2.027-1.694-.611-2.587.754-2.643,2.126-.052,1.264-.024,2.533,0,3.8.009.438-.13.577-.569.569-1.391-.024-1.391-.009-1.391-1.416Z" transform="translate(-74.58 -140.374)" fill="#fff"></path></g></svg> 