<?xml version="1.0" encoding="UTF-8"?> <svg xmlns="http://www.w3.org/2000/svg" width="139.604" height="46.707" viewBox="0 0 139.604 46.707"><g transform="translate(-88.36 -349.924)"><path d="M110.666,354.133l-3.066,4.452a61.1,61.1,0,0,0-5.78-2.577,10.474,10.474,0,0,0-3.771-.266,2.82,2.82,0,0,0-2.8,2.4c-.313,1.553.671,2.408,1.933,2.892,1.441.553,2.946.939,4.425,1.393,1,.308,2.025.565,3.011.92,4.8,1.725,7,4.717,6.723,9.086-.322,5.08-2.89,8.147-8.067,9.063-5.052.894-9.821.087-13.859-3.408a9.513,9.513,0,0,1-.709-.7,4.954,4.954,0,0,1-.347-.489l3.108-4.782c2.732,2.746,5.861,4.364,9.708,4a6.439,6.439,0,0,0,2.917-.993,2.652,2.652,0,0,0-.262-4.729,31.663,31.663,0,0,0-4.515-1.6c-1.415-.468-2.879-.809-4.261-1.358-4.236-1.683-6-4.427-5.783-8.841a8.708,8.708,0,0,1,6.574-8.07A15.11,15.11,0,0,1,110.666,354.133Z" transform="translate(0 0)" fill="#fff"></path><path d="M167.131,391.675l3.325-9.67c.09-.261.182-.522.27-.784,1.7-5.022,1.7-5.022,7.277-4.576-.8,2.21-1.584,4.377-2.376,6.539-2.417,6.592-4.788,13.2-7.276,19.766-1.608,4.241-5.42,6-10.026,4.64l.577-4.747c.551,0,.976-.006,1.4,0A3.428,3.428,0,0,0,163.8,398q-3.587-9.814-7.18-19.625c-.2-.554-.393-1.113-.593-1.682a3.292,3.292,0,0,1,.48-.125c4.954-.247,4.95-.245,6.557,4.441q1.827,5.326,3.677,10.645Z" transform="translate(-45.155 -17.712)" fill="#fff"></path><path d="M352.435,388.863H337.5a5.439,5.439,0,0,0,3.023,4.64c2.992,1.451,5.686.476,8.267-1.373.335.523.669,1.025.983,1.539,1.484,2.431,1.462,2.506-1.024,3.809-5.4,2.829-11.993,1.3-15.036-3.493-3.275-5.154-2.159-12.946,2.362-16.5a9.8,9.8,0,0,1,14.817,3.007A14.125,14.125,0,0,1,352.435,388.863Zm-5.133-3.935a4.591,4.591,0,0,0-2.33-4.347,4.891,4.891,0,0,0-5.191.065,4.994,4.994,0,0,0-2.355,4.282Z" transform="translate(-162.474 -16.941)" fill="#fff"></path><path d="M227.165,398V375.694H232.2c.078.728.162,1.506.273,2.535a10.029,10.029,0,0,1,6.081-3.13c4.141-.445,7.172,1.641,7.37,5.766.269,5.634.067,11.291.067,17.052h-5.2c0-1.468,0-2.889,0-4.309,0-3.05.029-6.1-.013-9.15-.038-2.8-1.407-4.241-3.846-4.162-2.7.088-4.6,1.879-4.6,4.343,0,4.425,0,8.85,0,13.361Z" transform="translate(-92.631 -16.761)" fill="#fff"></path><path d="M399.583,391.087c1.73.807,3.274,1.659,4.914,2.242a8.789,8.789,0,0,0,3.1.328,2.355,2.355,0,0,0,2.6-2.066c.2-1.56-1.066-1.929-2.17-2.264-1.743-.53-3.555-.846-5.278-1.431-3.1-1.054-4.55-3.015-4.621-5.983a6.89,6.89,0,0,1,4.209-6.419,11.794,11.794,0,0,1,12.286,2.281l-1.775,3.27c-2.2-.669-4.189-1.381-6.236-1.838a3.7,3.7,0,0,0-2.357.529,2.093,2.093,0,0,0-.942,1.569,2.06,2.06,0,0,0,1.077,1.43,21.515,21.515,0,0,0,3,.912,30.728,30.728,0,0,1,4.092,1.321,6.732,6.732,0,0,1,1.361,11.3c-3.817,3.167-11.938,2.412-15.311-1.519Z" transform="translate(-206.328 -16.504)" fill="#fff"></path><path d="M472.031,377.778l-1.774,3.274c-2.2-.672-4.184-1.372-6.224-1.852a3.291,3.291,0,0,0-2.211.451,2.311,2.311,0,0,0-1.079,1.649,2.111,2.111,0,0,0,1.21,1.5c1.765.625,3.623.979,5.415,1.535,2.305.716,4.253,1.9,5,4.407a6.8,6.8,0,0,1-4.583,8.831,13.145,13.145,0,0,1-11.732-1.652c-.933-.623-1.264-1.249-.536-2.277.6-.844,1.05-1.791,1.489-2.556,1.721.805,3.264,1.659,4.9,2.243a8.865,8.865,0,0,0,3.1.324,2.355,2.355,0,0,0,2.6-2.067c.195-1.548-1.062-1.933-2.171-2.268-1.744-.526-3.555-.844-5.278-1.425-3.088-1.041-4.538-3.01-4.61-5.985a6.851,6.851,0,0,1,4.2-6.416A11.758,11.758,0,0,1,472.031,377.778Z" transform="translate(-244.759 -16.502)" fill="#fff"></path><path d="M302.937,370.066h-4.076c0,3.7-.1,7.283.046,10.855.07,1.665,1.345,2.058,3.6,1.271a27.658,27.658,0,0,1,.916,3.475,1.737,1.737,0,0,1-.795,1.363c-4.579,2.5-9.051-.171-9.077-5.378-.016-3.213,0-6.426,0-9.639v-1.936H290.3v-5.145l3.182-.155v-5.835h5.265V364.9a18.245,18.245,0,0,0,2.55.106c1.356-.135,1.761.444,1.654,1.715C302.868,367.751,302.937,368.8,302.937,370.066Z" transform="translate(-134.767 -6.019)" fill="#fff"></path><path d="M238.223,454.409a4.378,4.378,0,0,1-1.455-.18,7.007,7.007,0,0,0-5.928-.492,2.542,2.542,0,0,0-1.486,1.694c-.019.546.832,1.355,1.479,1.64a29.156,29.156,0,0,0,3.51.95,14.2,14.2,0,0,1,3.1,1.11c1.921,1.111,1.924,3.342.114,4.64-2.4,1.72-8.029,1.283-10.227-1.221a4.047,4.047,0,0,1,1.48.176,8.377,8.377,0,0,0,6.087.946c1.18-.26,2.288-.72,2.355-2.164.064-1.355-1.047-1.761-2.035-2.068-1.634-.508-3.326-.826-4.971-1.3-1.337-.384-2.586-1.052-2.561-2.65s1.2-2.465,2.631-2.822c2.808-.7,5.547-.705,7.963,1.139Z" transform="translate(-92.744 -68.278)" fill="#fff"></path><path d="M357.905,462.888c.457.423,1.094.762,1.34,1.285.912,1.939,1.695,3.94,2.672,6.266.994-2.239,1.827-4.2,2.744-6.121a5.65,5.65,0,0,1,1.1-1.211,5.669,5.669,0,0,1,.984,1.156c.911,1.948,1.753,3.927,2.737,6.159a37.618,37.618,0,0,1,1.878-4.243c.65-1.09.258-3.175,2.66-3.033-1.188,2.715-2.3,5.294-3.459,7.847-.151.331-.628.777-.884.736a1.6,1.6,0,0,1-1.026-.8c-.964-2.047-1.85-4.131-2.878-6.464-1.006,2.208-1.879,4.219-2.848,6.182a2.179,2.179,0,0,1-1.2,1.068c-.231.064-.806-.591-1-1.023-1.122-2.45-2.177-4.931-3.255-7.4Z" transform="translate(-179.592 -75.387)" fill="#fff"></path><path d="M422.629,471.221c-1.858.238-3.547.56-5.249.648-2.349.121-4.21-1.207-4.227-2.828s1.8-3.035,4.143-2.959a22.725,22.725,0,0,1,3.684.711c.4-2-.184-2.975-2.278-3.059a15.09,15.09,0,0,0-3.507.674c-.387.081-.773.166-1.538.33,1.962-2.3,6.275-2.715,8.079-1.039a2.783,2.783,0,0,1,.853,1.7C422.692,467.431,422.629,469.471,422.629,471.221Zm-4.6-4.5-.092.212a7.571,7.571,0,0,0-1.312.108c-1.082.275-2.176.865-1.917,2.065.167.773,1.127,1.881,1.8,1.933a8.869,8.869,0,0,0,4.05-.787,2.487,2.487,0,0,0,.228-2.32C420.145,467.265,418.977,467.1,418.03,466.724Z" transform="translate(-216.75 -75.246)" fill="#fff"></path><path d="M484.576,470.081c-2.73,2.448-7.607,2.251-9.643,0a4.209,4.209,0,0,1-.1-5.473c1.934-2.258,6.389-2.612,8.643-.666a3.746,3.746,0,0,1,1.416,3.638h-9.434a3.313,3.313,0,0,0,3.258,3.338,21.223,21.223,0,0,0,4.038-.534C483.208,470.318,483.657,470.235,484.576,470.081Zm-.925-3.233c-.327-2.315-1.815-3.365-4.431-3.252-2.2.1-3.5,1.24-3.628,3.252Z" transform="translate(-257.272 -75.245)" fill="#fff"></path><path d="M276.142,472.112c-4.122-.018-6.48-2.552-5.595-5.643a4.048,4.048,0,0,1,3.215-3.023,11.9,11.9,0,0,1,4.549.024,4.093,4.093,0,0,1,3.311,4.516,4.422,4.422,0,0,1-3.827,3.989A13.825,13.825,0,0,1,276.142,472.112Zm-.211-.772c2.5.011,4.258-1.466,4.312-3.622.055-2.172-1.659-3.719-4.149-3.746-2.6-.028-4.44,1.493-4.441,3.671C271.654,469.748,273.485,471.331,275.932,471.341Z" transform="translate(-121.459 -75.621)" fill="#fff"></path><path d="M316.737,453.939c-2-.031-4.362-.987-4.23,2.207l2.316.327-.008.562-2.267.209v7.672c-1.342.162-1.38.162-1.391-.846-.025-2.2-.008-4.4-.008-6.633l-1.943-.382-.024-.415q.881-.141,1.762-.283C311.646,453.075,313.919,451.938,316.737,453.939Z" transform="translate(-147.365 -68.753)" fill="#fff"></path><path d="M335.534,458.44l.923-2.354,1.2,2.406,1.787.182q.031.207.062.414l-2.245.445c0,2.011-.056,4.093.061,6.164.017.3.828.657,1.327.808.334.1.763-.112,1.187-.016a2.114,2.114,0,0,1-2.8.673,2.359,2.359,0,0,1-1.1-1.762c-.143-1.918-.052-3.855-.052-5.834l-1.927-.433-.016-.373Z" transform="translate(-163.888 -70.847)" fill="#fff"></path><path d="M453.327,471.225v-8.964l1.6,1.351,3.429-1.145.265.635a3.991,3.991,0,0,1-1.013.562c-2.727.586-3.037.947-3.038,3.718a30.437,30.437,0,0,1-.042,3.153c-.037.348-.526.649-.808.971Z" transform="translate(-243.561 -74.968)" fill="#fff"></path></g></svg> 